<svg width="802" height="199" viewBox="0 0 802 199" fill="none" xmlns="http://www.w3.org/2000/svg">
<path d="M138.395 95.3766H117.706V104.227H138.395V95.3766Z" fill="black"/>
<path d="M133.104 66.7859C133.104 66.7859 113.618 76.6661 124.849 93.8008C124.849 93.8008 135.387 100.459 131.242 111.672C127.097 122.885 134.197 135.277 143.655 140.602C143.655 140.602 150.75 148.273 147.202 160.078C143.655 171.882 147.321 170.269 147.321 170.269H194.095L148.963 96.9174L151.918 84.5255L133.104 66.7859Z" fill="black"/>
<path d="M186.302 158.355L200.15 103.181L150.531 89.6804L143.65 92.8847L186.302 158.355Z" fill="black"/>
<path d="M176.993 19.4145C176.404 19.3051 175.803 19.2756 175.206 19.3268C175.926 16.6442 176.444 12.8526 175.522 10.7047C174.148 7.49605 161.766 8.87244 157.639 14.3648C154.311 18.8052 167.053 21.1372 172.137 21.8736C171.496 25.1305 167.602 24.2494 166.399 26.051C165.196 27.8526 165.793 28.7731 166.399 30.8727C167.004 32.9724 165.187 32.3806 163.676 33.5904C162.166 34.8002 160.195 36.4616 162.917 37.6714L178.051 40.3891C178.349 39.8399 178.561 39.2487 178.679 38.6357C178.78 38.6664 178.877 38.6971 178.978 38.719C179.378 38.829 179.789 38.8951 180.203 38.9163H180.4C181.435 38.9329 182.434 38.5442 183.184 37.8336C185.709 35.4928 185.573 31.1883 185.116 28.2865H187.751C187.751 28.2865 191.373 18.9586 176.993 19.4145ZM182.288 36.9087C181.746 37.4286 181.011 37.6988 180.26 37.6538C179.716 37.622 179.181 37.5036 178.675 37.3032C178.567 36.8124 178.296 36.3723 177.907 36.0539C176.089 34.5416 174.578 33.3318 175.786 32.1088C176.993 30.8859 176.695 29.3911 175.786 28.1638L175.746 28.1419C175.544 27.8449 175.579 27.4464 175.831 27.1897C176.083 26.933 176.481 26.8893 176.783 27.0855L178.649 28.326H183.768C184.216 30.9604 184.431 34.923 182.288 36.9087Z" fill="black"/>
<path d="M285.009 135.842C282.51 126.334 277.005 119.593 269.501 116.853C261.997 114.113 253.435 115.722 245.383 121.377C243.825 122.475 242.343 123.677 240.948 124.976L228.904 91.3111C226.574 84.8354 221.016 80.0517 214.257 78.7044C213.425 78.5379 212.583 78.4266 211.737 78.3713L212.479 78.6956L211.574 79.6819C212.123 79.7126 212.668 79.7696 213.203 79.8528C219.843 80.8759 225.39 85.442 227.662 91.7538L235.539 113.772L235.262 113.609L201.976 169.594H127.282C127.695 168.625 128.09 167.63 128.459 166.622C133.42 153.073 133.012 139.349 128.331 129.552L131.778 125.344L130.759 124.511L127.686 128.267C124.819 122.924 120.599 118.9 115.229 116.936C99.941 111.361 81.0083 124.568 73.0172 146.388C69.7901 155.203 68.8373 164.097 69.8559 171.935C71.3576 183.49 77.1445 192.747 86.2508 196.074C87.0007 196.347 87.766 196.575 88.5427 196.758C88.9818 196.872 89.4209 196.964 89.8907 197.039C91.1044 197.248 92.334 197.352 93.5657 197.35C95.3386 197.346 97.1057 197.146 98.8345 196.754C103.919 195.618 108.986 192.896 113.578 188.899C118.777 184.379 123.374 178.229 126.707 170.927H202.727L235.973 115.003L239.925 125.984C234.441 131.38 229.963 138.468 227.012 146.529C223.236 156.843 222.547 167.262 224.474 175.994C226.608 185.668 231.938 193.269 239.842 196.381L240.092 196.478L240.342 196.57C241.801 197.092 243.313 197.454 244.851 197.648C245.791 197.767 246.737 197.827 247.683 197.828C248.711 197.827 249.738 197.758 250.757 197.622C252.622 197.378 254.456 196.937 256.228 196.307C267.099 192.454 277.444 181.622 282.835 166.894C286.712 156.286 287.489 145.258 285.009 135.842ZM127.418 130.67C131.703 140.098 131.967 153.213 127.22 166.175C126.781 167.341 126.342 168.485 125.846 169.599H95.5108L127.418 130.67ZM86.6986 194.843C72.0952 189.512 66.5014 167.981 74.251 146.844C80.8063 128.938 94.8522 116.993 107.875 116.993C110.227 116.986 112.563 117.395 114.773 118.199C119.998 120.106 124.068 124.086 126.79 129.381L92.7315 170.909H125.253C116.7 189.188 100.178 199.761 86.6986 194.843ZM281.593 166.438C275.494 183.095 262.954 194.658 250.739 196.324C249.738 196.464 248.729 196.534 247.719 196.535C246.783 196.536 245.849 196.473 244.922 196.346C243.504 196.154 242.112 195.81 240.768 195.32C226.055 189.951 220.43 168.257 228.228 146.967C231.03 139.305 235.253 132.546 240.39 127.338L249.773 153.568L251.016 153.13L241.427 126.326C242.901 124.922 244.477 123.628 246.142 122.455C251.411 118.76 256.869 116.871 262.067 116.871C264.448 116.864 266.811 117.277 269.049 118.089C276.135 120.675 281.343 127.097 283.735 136.175C286.146 145.336 285.386 156.085 281.593 166.438Z" fill="black"/>
<path d="M205.537 81.1635L204.22 80.2868V91.9686H205.537V81.1635Z" fill="black"/>
<path d="M231.701 103.322H200.088V104.637H231.701V103.322Z" fill="black"/>
<path d="M188.857 176.555L184.646 171.755L178.381 174.447L176.624 170.914L175.724 169.116L166.254 169.743L166.447 170.252L166.693 170.909L171.215 182.937L176.185 181.706L175.035 178.637L178.047 179.641L188.857 176.555ZM174.429 180.785L172.049 181.381L168.12 170.94L168.51 170.914L174.912 170.475L175.127 170.914L177.762 176.143L184.313 173.338L186.508 175.862L178.073 178.269L172.831 176.516L174.429 180.785Z" fill="black"/>
<path d="M190.348 176.728L167.072 185.13L168.477 189.007L191.753 180.604L190.348 176.728Z" fill="black"/>
<path d="M118.432 72.5369H76.6989V73.852H118.432V72.5369Z" fill="black"/>
<path d="M112.465 86.7304H88.6196V88.0454H112.465V86.7304Z" fill="black"/>
<path d="M109.256 105.505H73.0282V106.82H109.256V105.505Z" fill="black"/>
<path d="M183.672 59.5095L178.916 38.4692L177.63 38.7585L182.508 60.3116L203.188 73.3303L198.477 78.8578L173.551 69.9507L167.689 46.0568L166.407 46.3724L168.603 55.2795C157.033 70.3409 136.665 64.0945 132.318 62.534L167.444 36.672L166.662 35.6112L129.363 63.0732L153.306 87.458L171.672 67.7766L172.458 70.9808L198.903 80.4095L205.164 73.0454L183.672 59.5095ZM153.266 85.5206L132.033 63.8973C136.318 65.4115 140.801 66.2974 145.341 66.5273C145.926 66.5536 146.512 66.5668 147.097 66.5668C156.238 66.5668 163.751 63.2617 168.993 56.9233L171.272 66.2117L153.266 85.5206Z" fill="black"/>
<path d="M230.753 87.6246L238.121 107.736H266.05L275.415 88.5846L230.753 87.6246ZM249.787 89.3517L249.484 89.5884L251.402 92.0343L243.209 98.4779L237.848 89.093L249.787 89.3517ZM254.41 106.421H246.379L247.407 105.833L243.868 99.6351L252.21 93.06L258.612 101.213L254.142 106.188L254.41 106.421ZM259.437 102.252L262.713 106.421H255.688L259.437 102.252ZM232.654 88.9835L237.321 89.0843L236.575 89.5226L242.164 99.3151L238.178 102.454L238.994 103.484L242.827 100.472L246.23 106.434H239.043L232.654 88.9835ZM265.229 106.421H263.033L263.885 105.754L260.351 101.257L267.046 93.7614L266.063 92.8847L259.503 100.192L253.251 92.2359L254.129 91.5521L253.317 90.5177L252.439 91.2015L250.99 89.3604L273.308 89.8382L265.229 106.421Z" fill="black"/>
<path d="M153.705 21.3914C141.842 9.55008 122.61 9.55008 110.746 21.3914L99.2034 32.9154L132.489 66.146L133.42 65.2167L108.296 40.1349L124.669 27.1337C128.573 24.0453 129.404 18.4625 126.571 14.3736C128.436 14.0076 130.333 13.8241 132.235 13.8257C139.941 13.804 147.337 16.8595 152.774 22.312L166.614 36.1372L167.545 35.2079L153.705 21.3914ZM126.882 20.5586C126.666 22.7388 125.571 24.7374 123.848 26.0948L107.361 39.1968L101.065 32.9154L111.677 22.312C115.39 18.5921 120.049 15.9548 125.152 14.6848C126.48 16.3397 127.101 18.4498 126.882 20.5586Z" fill="black"/>
<path d="M175.228 107.117L163.971 123.005L165.051 123.767L176.308 107.88L175.228 107.117Z" fill="white"/>
<path d="M198.903 105.215C182.596 105.04 157.837 104.882 156.467 105.176C156.566 105.15 156.656 105.097 156.726 105.022L155.795 104.093C156.085 103.804 156.278 103.611 177.748 103.729C188.233 103.786 198.824 103.9 198.907 103.9L198.903 105.215Z" fill="white"/>
<path d="M186.618 159.381L148.05 98.4516L152.647 94.8835L153.455 95.9224L149.802 98.7584L187.733 158.68L186.618 159.381Z" fill="white"/>
<path d="M131.027 119.141L130.588 117.901C136.669 115.792 140.845 112.251 141.499 108.665C141.819 106.85 141.156 105.211 139.58 103.922C133.903 99.2844 137.341 89.0185 139.892 84.7622C140.131 84.3648 140.172 83.8787 140.002 83.4472C138.904 79.9405 129.372 75.0443 125.789 73.4487L126.329 72.2476C126.878 72.4931 139.76 78.2923 141.257 83.0527C141.537 83.8369 141.452 84.7048 141.025 85.4198C138.101 90.2809 135.892 99.188 140.414 102.888C142.355 104.47 143.198 106.6 142.794 108.88C142.057 112.952 137.547 116.875 131.027 119.141Z" fill="white"/>
<path d="M149.433 151.622L148.871 150.434C148.95 150.399 156.555 146.796 159.176 143.307C159.607 142.831 159.732 142.151 159.496 141.554C158.653 139.41 153.749 137.332 149.494 136.556C148.805 136.434 147.87 136.18 147.659 135.399C147.4 134.439 148.427 133.571 149.854 132.366C151.782 130.731 154.179 128.697 153.573 126.47C153.482 126.141 153.237 125.876 152.915 125.76C149.762 124.445 139.115 129.767 135.277 131.928L134.632 130.784C136.098 129.955 149.121 122.749 153.42 124.546C154.125 124.82 154.657 125.415 154.851 126.146C155.681 129.179 152.814 131.612 150.719 133.387C150.056 133.948 149.169 134.702 148.985 135.062C149.226 135.176 149.484 135.251 149.749 135.285C153.516 135.969 159.553 138.082 160.726 141.093C161.125 142.113 160.936 143.268 160.234 144.109C157.411 147.848 149.758 151.473 149.433 151.622Z" fill="white"/>
<path d="M189.559 170.8C189.498 170.703 183.492 161.121 179.127 158.943C177.854 158.307 177.533 158.412 177.52 158.421C177.331 158.732 177.797 160.529 178.135 161.844C178.554 163.376 178.894 164.929 179.154 166.495C179.285 167.372 179.347 168.389 178.613 168.805C177.621 169.366 176.304 168.275 173.678 166.105C170.706 163.655 166.653 160.293 162.263 158.982C160.48 158.452 159.189 158.579 158.416 159.363C156.423 161.388 157.797 167.438 158.495 169.599L157.24 170.002C157.125 169.656 154.522 161.45 157.472 158.443C158.614 157.281 160.353 157.04 162.64 157.724C167.272 159.109 171.461 162.568 174.517 165.092C175.768 166.127 177.296 167.389 177.911 167.6C177.928 167.298 177.909 166.994 177.854 166.697C177.598 165.173 177.265 163.663 176.857 162.173C176.203 159.639 175.812 158.114 176.712 157.386C177.467 156.777 178.653 157.237 179.716 157.768C184.414 160.113 190.424 169.699 190.692 170.107L189.559 170.8Z" fill="white"/>
<path d="M189.573 144.061C188.255 143.114 176.734 134.698 177.336 130.446C177.428 129.797 177.828 128.925 179.197 128.434C180.018 128.14 180.892 127.842 181.792 127.535C185.7 126.22 191.601 124.191 191.838 122.538C191.9 122.1 191.399 121.662 190.96 121.35C188.589 119.694 187.518 117.287 188.225 115.214C188.664 113.973 190.385 111.124 197.331 111.453L197.265 112.768C193.068 112.571 190.152 113.644 189.472 115.643C188.958 117.142 189.836 118.962 191.715 120.272C192.782 121.017 193.256 121.841 193.133 122.722C192.809 125.006 188.598 126.602 182.205 128.78C181.327 129.087 180.449 129.381 179.632 129.657C178.815 129.933 178.671 130.345 178.631 130.617C178.262 133.247 185.612 139.585 190.332 142.978L189.573 144.061Z" fill="white"/>
<path d="M162.649 100.871C161.924 100.889 161.21 100.695 160.594 100.315C157.679 98.456 158.838 92.7181 158.908 92.477L160.195 92.7444C159.9 94.1603 159.518 98.0703 161.301 99.2056C162.438 99.9288 165.002 99.8806 170.772 95.5629L171.562 96.615C167.76 99.4598 164.814 100.871 162.649 100.871Z" fill="white"/>
<path d="M203.122 73.1901L203.065 73.2733L202.297 74.3823L199.364 78.6386L200.014 79.077L208.646 84.8236L214.696 78.2354L203.122 73.1901ZM212.479 78.6956L211.574 79.6819L208.439 83.0965L205.537 81.1635L204.22 80.2868L201.212 78.2836L203.342 75.2152L203.597 74.8426H203.64L211.741 78.3493L212.479 78.6956Z" fill="black"/>
<path d="M73.9632 17.0468L47.9677 35.6283L66.5917 61.5922L92.5872 43.0107L73.9632 17.0468Z" fill="#F4A019"/>
<path d="M239.345 32.859L227.522 41.3097L235.992 53.1179L247.815 44.6672L239.345 32.859Z" fill="#F4A019"/>
<path d="M76.1171 198.086C1.16792 198.086 0.38199 197.609 0 197.381L0.676167 196.254C0.640458 196.232 0.602108 196.214 0.562009 196.201C4.74634 197.24 191.079 196.64 289.031 196.158V197.473C288.315 197.473 216.584 197.819 145.543 197.99C117.245 198.051 94.457 198.086 76.1171 198.086Z" fill="black"/>
<path d="M70.4092 171.65C70.4092 171.65 61.3336 175.981 60.416 182.85C59.4983 189.718 55.8277 180.101 50.3174 181.473C44.807 182.845 47.5644 192.923 40.6842 190.174C33.804 187.426 27.3848 192.462 19.1303 197.043H90.681C90.681 197.043 74.9052 196.162 70.4092 171.65Z" fill="black"/>
<path d="M191.114 196.583C191.114 196.583 199.829 195.211 203.496 191.546C207.162 187.882 211.754 196.583 213.594 193.834C215.434 191.086 214.512 184.222 215.89 185.138C217.269 186.054 219.548 193.834 222.288 191.073C225.027 188.311 219.28 181.587 225.142 175.113C225.142 175.113 228.448 194.474 242.797 196.438L191.114 196.583Z" fill="black"/>
<path d="M78.8657 52.8818L69.4476 38.5656L48.4425 52.3382L62.1371 73.1594L83.1378 59.3911L78.8657 52.8818ZM50.2647 52.7152L69.0525 40.3891L77.7768 53.6489L81.2893 59.0054L62.4884 71.3315L50.2647 52.7152Z" fill="black"/>
<path d="M788.068 196.284H597.852V197.53H788.068V196.284Z" fill="black"/>
<path d="M662.426 146.438C664.077 133.561 658.081 112.144 655.927 106.258C653.922 100.775 651.71 92.5044 651.673 88.6455C651.668 88.3863 651.676 88.127 651.698 87.8688C651.684 87.1772 651.461 86.5065 651.059 85.9455L649.953 90.44L647.118 84.7368L648.137 82.3898C647.832 82.0783 647.518 81.7626 647.196 81.4511C644.948 79.3187 642.595 77.3015 640.145 75.4073V74.5765L617.451 79.9765L617.327 80.072C615.592 81.5946 614.241 83.511 613.387 85.6631C613.222 86.0577 613.065 86.4938 612.916 86.9092L614.62 88.4669L612.388 88.7868C612.388 88.874 612.347 88.9654 612.33 89.0567L615.322 95.9438L612.768 101.086C612.908 101.676 613.069 102.283 613.251 102.901C613.593 104.069 614.002 105.286 614.488 106.553C616.312 111.292 615.103 115.849 612.013 118.325C608.922 120.8 604.012 131.339 609.859 138.155C615.706 144.971 614.781 153.333 612.335 158.6C609.941 163.714 605.811 170.871 614.307 180.075C614.563 180.35 614.827 180.628 615.103 180.906H628.336L628.41 180.711C628.468 180.57 628.55 180.354 628.658 180.075C629.71 177.384 633.097 168.785 635.412 163.876C637.232 160.012 639.844 151.879 640.644 141.931C640.784 142.143 640.929 142.346 641.057 142.558C642.245 144.245 643.532 145.777 644.667 147.269C648.793 152.668 646.681 153.969 644.527 165.13C642.909 173.5 647.052 177.969 649.218 179.668C649.607 179.98 650.021 180.258 650.456 180.499L661.597 180.084C661.659 179.959 661.716 179.818 661.774 179.668C663.614 174.592 661.279 155.389 662.426 146.438Z" fill="black"/>
<path d="M617.038 80.1385V72.2919H618.276V78.5684L638.932 73.7416L637.009 68.1132L638.177 67.7103L640.549 74.643L617.038 80.1385Z" fill="black"/>
<path d="M647.514 37.6446C645.609 35.675 643.294 34.1548 640.735 33.1931C638.177 32.2314 635.439 31.8522 632.718 32.0826L626.273 32.6226L626.376 33.8688L632.817 33.3288C635.356 33.1117 637.912 33.4644 640.301 34.3615C642.689 35.2587 644.849 36.6779 646.627 38.5169L674.144 66.8917L657.343 84.2007L647.807 70.759L656.579 64.0298L640.103 48.7187L637.215 39.2937L636.035 39.6592L643.875 65.3507L612.929 73.056C613.164 66.954 613.964 45.8111 613.754 44.7435L612.541 44.9969C612.607 45.4123 612.541 48.6107 612.413 52.9723L612.215 52.8435L599.44 72.5202L612.755 79.644L606.607 95.5033L579.288 80.7572L597.814 44.486C598.849 42.4491 600.334 40.6785 602.156 39.3102C603.977 37.942 606.086 37.0126 608.32 36.5937L616.122 35.1149L615.891 33.8688L608.089 35.3642C605.67 35.8196 603.387 36.8273 601.415 38.3101C599.444 39.7928 597.837 41.7109 596.717 43.9169L577.629 81.2765L607.251 97.2645L614.307 79.0625L601.214 72.084L612.322 54.937C612.14 60.7524 611.876 68.0964 611.649 73.8577L611.616 74.6885L645.451 66.2687L640.83 51.1113L654.661 63.9633L646.103 70.5263L657.198 86.1614L675.877 66.8917L647.514 37.6446Z" fill="black"/>
<path d="M617.393 89.3391L613.387 85.6631L612.178 84.5456L611.394 83.827L608.654 91.2374L609.017 92.7037L612.087 105.236L616.683 95.9852L614.005 89.8251L617.393 89.3391ZM615.33 95.952L612.776 101.094L612.499 101.655L609.954 91.3205L611.922 85.9994L614.629 88.4751L612.396 88.7949L612.231 88.8199L612.339 89.0649L615.33 95.952Z" fill="black"/>
<path d="M649.507 73.3552L645.195 78.1404L648.43 78.6098L645.748 84.7741L650.341 94.0247L653.547 81.0232L653.802 79.9764L649.507 73.3552ZM651.059 85.9455L649.953 90.44L647.118 84.7368L648.137 82.3898L650.2 77.6046L647.663 77.2432L649.334 75.3823L652.461 80.18L651.059 85.9455Z" fill="black"/>
<path d="M620.137 181.592C616.555 178.435 616.997 166.862 620.038 162.484C622.637 158.746 624.511 144.473 618.491 139.223C616.502 137.49 615.425 135.384 615.293 132.992C615.021 128.078 618.647 123.023 621.742 119.654C626.367 114.607 622.893 105.444 622.856 105.352L624.011 104.895C624.168 105.311 627.807 114.865 622.65 120.501C620.252 123.118 616.267 128.211 616.527 132.921C616.594 133.962 616.875 134.978 617.352 135.904C617.829 136.83 618.492 137.646 619.299 138.3C625.901 144.066 623.904 159.115 621.053 163.223C618.379 167.066 617.876 177.965 620.954 180.67L620.137 181.592Z" fill="white"/>
<path d="M628.942 180.981L627.828 180.433C636.493 162.571 639.443 147.248 640.405 137.549C641.643 125.137 640.178 116.48 638.548 112.842C634.789 104.426 637.57 93.7631 637.69 93.3186L638.886 93.6426C638.857 93.7464 636.101 104.33 639.679 112.335C643.202 120.21 645.212 147.36 628.942 180.981Z" fill="white"/>
<path d="M625.575 192.961L630.527 180.084H612.466L613.292 196.284L613.354 197.53H615.623L616.036 196.284L616.481 194.946L618.635 197.114H630.655V192.961H625.575ZM615.941 192.637L614.736 196.284H614.53L613.77 181.33H628.719L623.768 194.207H629.417V195.868H619.151L615.941 192.637Z" fill="black"/>
<path d="M659.41 192.545L664.361 179.668H646.301L647.159 196.284L647.2 197.114H649.47L650.328 194.531L652.482 196.699H664.489V192.545H659.41ZM649.775 192.221L648.57 195.868H648.364L647.605 180.915H662.554L657.602 193.791H663.251V195.453H652.985L649.775 192.221Z" fill="black"/>
<path d="M619.403 49.8031L618.388 49.0887C619.295 47.7844 619.625 46.7085 619.374 45.9858C619.277 45.7649 619.133 45.568 618.953 45.4088C618.772 45.2495 618.56 45.1317 618.33 45.0636L618.631 43.8548C619.054 43.9738 619.444 44.1872 619.773 44.4792C620.103 44.7712 620.363 45.1343 620.533 45.5413C620.954 46.6794 620.574 48.1167 619.403 49.8031Z" fill="#F4A019"/>
<path d="M605.072 47.1279C602.333 46.2099 601.417 43.5265 601.359 43.3894L602.531 42.9741C602.531 42.9741 603.302 45.1881 605.419 45.9067L605.072 47.1279Z" fill="#F4A019"/>
<path d="M597.521 62.6966L596.531 61.9489C597.068 61.2262 601.895 54.9414 605.555 56.7816L605.002 57.8948C602.671 56.7151 598.813 60.9645 597.521 62.6966Z" fill="#F4A019"/>
<path d="M595.042 55.4687L594.885 54.2226C597.699 53.8695 598.475 50.1851 598.483 50.1477L599.696 50.3928C599.659 50.588 598.743 54.9994 595.042 55.4687Z" fill="#F4A019"/>
<path d="M588.634 80.0472C588.077 78.9257 586.1 78.4106 585.387 78.3109L585.56 77.0648C585.692 77.0855 588.782 77.5508 589.74 79.4823L588.634 80.0472Z" fill="#F4A019"/>
<path d="M587.837 72.0051L587.235 70.9168C587.268 70.8961 590.631 68.977 590.631 66.4764H591.869C591.869 69.7122 588.003 71.9138 587.837 72.0051Z" fill="#F4A019"/>
<path d="M600.575 77.8997C599.523 75.0792 593.862 75.7979 593.808 75.8228L593.643 74.5766C593.915 74.5434 600.336 73.7459 601.73 77.4843L600.575 77.8997Z" fill="#F4A019"/>
<path d="M598.677 89.115V87.8688C600.455 87.8688 605.072 87.3787 605.072 85.1688H606.31C606.31 89.0693 598.99 89.115 598.677 89.115Z" fill="#F4A019"/>
<path d="M593.932 84.5042L592.735 84.1761C592.822 83.8562 593.627 81.0483 595.211 80.529C595.523 80.4333 595.854 80.4213 596.172 80.4941C596.489 80.567 596.783 80.7222 597.022 80.9444L596.247 81.9164C595.879 81.6215 595.673 81.6879 595.595 81.7129C594.889 81.9372 594.188 83.4782 593.932 84.5042Z" fill="#F4A019"/>
<path d="M623.442 66.954C620.727 66.954 617.529 65.0474 617.339 64.9353L617.975 63.8636C619.559 64.8231 623.991 66.8668 625.402 64.8688L626.409 65.5916C625.703 66.5968 624.614 66.954 623.442 66.954Z" fill="#F4A019"/>
<path d="M633.89 53.8779L632.784 53.3213C632.848 53.1932 632.883 53.0528 632.889 52.9095C632.895 52.7663 632.87 52.6235 632.817 52.4906C632.305 51.0824 629.565 49.6369 628.554 49.2007L629.041 48.0543C629.454 48.237 633.167 49.8986 633.993 52.0627C634.102 52.3559 634.149 52.6687 634.131 52.9813C634.113 53.2938 634.031 53.5991 633.89 53.8779Z" fill="#F4A019"/>
<path d="M625.868 59.0037C623.702 59.0037 620.574 56.8687 620.195 56.6028L620.896 55.581C622.291 56.5488 624.96 57.9902 626.174 57.7285C626.264 57.7159 626.351 57.6828 626.428 57.6318C626.504 57.5807 626.568 57.513 626.615 57.4336L627.68 58.0733C627.545 58.2976 627.366 58.4911 627.152 58.6413C626.939 58.7915 626.697 58.8952 626.442 58.9456C626.253 58.985 626.061 59.0045 625.868 59.0037Z" fill="#F4A019"/>
<path d="M635.606 65.276L634.368 65.1846C634.397 64.7692 634.702 61.1637 636.431 59.7514C636.699 59.531 637.009 59.3695 637.342 59.2772C637.676 59.1849 638.025 59.1639 638.366 59.2155L638.193 60.4617C638.019 60.4346 637.84 60.4454 637.67 60.4934C637.5 60.5414 637.342 60.6255 637.207 60.74C636.093 61.6331 635.672 64.3164 635.606 65.276Z" fill="#F4A019"/>
<path d="M631.443 42.4298C631.271 42.4306 631.1 42.3996 630.939 42.3385C629.668 41.8649 629.115 39.6385 629.021 39.1982L630.225 38.924C630.411 39.7548 630.914 41.0009 631.368 41.1712C631.405 41.1712 631.504 41.2211 631.727 41.0549L632.47 42.0518C632.179 42.2889 631.817 42.4219 631.443 42.4298Z" fill="#F4A019"/>
<path d="M644.684 40.7229H643.446C643.446 39.1777 640.355 36.9263 638.408 35.8712L638.994 34.7746C639.575 35.0903 644.684 37.9398 644.684 40.7229Z" fill="#F4A019"/>
<path d="M649.371 53.5914C648.372 52.4159 647.914 51.2611 648.018 50.1604C648.089 49.3768 648.455 48.6504 649.041 48.1291L649.817 49.1011L649.429 48.6151L649.821 49.097C649.487 49.4107 649.282 49.8391 649.247 50.2974C649.189 51.0451 649.544 51.88 650.312 52.7897L649.371 53.5914Z" fill="#F4A019"/>
<path d="M664.423 63.0164L663.317 62.4598C664.258 60.5657 660.313 58.306 660.272 58.306L660.866 57.2094C661.073 57.3215 665.913 60.0381 664.423 63.0164Z" fill="#F4A019"/>
<path d="M654.355 59.8552C652.412 57.8988 654.165 54.3057 654.24 54.152L655.346 54.7086C654.933 55.5394 654.141 57.878 655.23 58.9746L654.355 59.8552Z" fill="#F4A019"/>
<path d="M653.142 72.3418L652.317 71.4114C652.585 71.1705 654.991 69.052 656.942 69.5339C657.353 69.6467 657.728 69.8642 658.031 70.1654C658.334 70.4667 658.554 70.8414 658.671 71.2535L657.516 71.6689C657.219 70.8714 656.79 70.7675 656.649 70.7302C655.531 70.4685 653.699 71.8392 653.142 72.3418Z" fill="#F4A019"/>
<path d="M657.788 78.3896C657.441 78.3898 657.095 78.362 656.753 78.3066L656.955 77.0604C657.132 77.0895 661.32 77.725 662.022 73.8246L663.259 74.0489C662.62 77.509 659.81 78.3896 657.788 78.3896Z" fill="#F4A019"/>
<path d="M665.508 67.3656L664.704 66.4185C664.885 66.2606 666.531 64.8899 668.099 65.2097C668.471 65.2917 668.819 65.4619 669.112 65.7061C669.406 65.9503 669.637 66.2614 669.787 66.6137L668.681 67.1703C668.61 66.9912 668.498 66.8311 668.355 66.7028C668.212 66.5745 668.041 66.4814 667.856 66.431C667.027 66.269 665.88 67.0499 665.508 67.3656Z" fill="#F4A019"/>
<path d="M636.584 27.7544C635.886 27.2474 635.14 26.8119 634.356 26.4543C633.531 26.0721 633.531 26.0721 633.531 24.5227C633.481 23.1885 633.212 21.8718 632.734 20.6264C633.238 18.5495 633.597 13.0083 623.075 13.0208C623.075 13.0208 619.337 12.0945 618.664 15.0271C618.664 15.0271 618.664 15.0603 618.664 15.0811C618.029 18.0802 614.513 17.158 613.374 18.7614C612.235 20.3648 612.755 21.208 613.242 23.1437C613.729 25.0794 612.112 24.4812 610.717 25.5363C609.322 26.5913 607.511 28.0286 609.925 29.2166L617.257 30.7743L615.908 33.4535C615.74 33.7816 615.641 34.1407 615.617 34.5088C615.593 34.8769 615.645 35.246 615.768 35.5933C615.891 35.9406 616.084 36.2587 616.335 36.528C616.585 36.7972 616.888 37.0119 617.224 37.1587L622.906 39.651C623.246 39.7996 623.612 39.8773 623.983 39.8794C624.347 39.8783 624.707 39.8026 625.041 39.6569C625.375 39.5113 625.677 39.2987 625.927 39.0322C626.177 38.7657 626.37 38.4507 626.496 38.1065C626.621 37.7623 626.676 37.396 626.656 37.0299L626.33 30.8283C626.643 30.7828 626.947 30.6933 627.234 30.5624C628.179 30.5915 630.122 30.6081 630.849 30.6081C634.81 30.6081 636.972 30.1429 637.285 29.2166C637.405 28.8593 637.38 28.3235 636.584 27.7544ZM627.354 29.0089C627.108 29.2312 626.819 29.3996 626.505 29.5032C626.191 29.6069 625.859 29.6437 625.53 29.6112C625.039 29.5667 624.558 29.4433 624.106 29.2456C624.019 28.8082 623.789 28.4123 623.454 28.12C621.862 26.6993 620.537 25.5612 621.655 24.4978C622.774 23.4344 622.547 22.0554 621.763 20.9338C621.755 20.9234 621.748 20.9122 621.742 20.9006C621.657 20.7678 621.621 20.6096 621.639 20.4529C621.658 20.2962 621.73 20.1507 621.843 20.0414C621.956 19.932 622.103 19.8656 622.259 19.8533C622.415 19.8411 622.571 19.8839 622.699 19.9743L624.35 21.1498L628.926 21.2911C628.926 21.3368 628.926 21.3866 628.926 21.4364C628.923 21.4558 628.923 21.4753 628.926 21.4946V21.5943C628.928 21.615 628.928 21.6359 628.926 21.6566C628.979 22.5289 628.926 25.9683 628.1 28.0867C627.9 28.4306 627.648 28.7416 627.354 29.0089ZM624.804 38.355C624.602 38.498 624.366 38.5861 624.121 38.6109C623.875 38.6356 623.627 38.5961 623.401 38.4962L617.719 36.0039C617.538 35.9247 617.376 35.8091 617.241 35.6642C617.106 35.5193 617.003 35.3482 616.936 35.1614C616.87 34.9746 616.842 34.7761 616.854 34.5781C616.867 34.3801 616.92 34.1868 617.009 34.0101L618.515 31.0443L623.467 32.0952C623.745 31.6168 623.95 31.0986 624.073 30.5583C624.404 30.6732 624.743 30.7594 625.088 30.8158L625.418 37.0839C625.432 37.331 625.383 37.5775 625.275 37.8C625.168 38.0225 625.005 38.2136 624.804 38.355ZM628.93 29.3163C629.045 29.1096 629.147 28.896 629.235 28.6766C630.502 26.5415 630.473 23.5591 630.192 21.3908V21.3409L631.694 21.3866C632.059 22.3935 632.265 23.4517 632.305 24.5227C632.305 26.662 632.573 26.9901 633.832 27.5841C634.548 27.9087 635.229 28.3054 635.866 28.768L635.965 28.8427C635.053 29.2373 631.839 29.3993 628.909 29.2996L628.93 29.3163Z" fill="black"/>
<path d="M721.636 30.9614C721.106 30.9614 720.587 31.1198 720.146 31.4164C719.705 31.7131 719.362 32.1348 719.159 32.6282C718.956 33.1215 718.902 33.6644 719.006 34.1881C719.109 34.7119 719.365 35.193 719.74 35.5706C720.115 35.9482 720.593 36.2053 721.113 36.3095C721.633 36.4137 722.173 36.3602 722.663 36.1559C723.153 35.9515 723.572 35.6054 723.866 35.1614C724.161 34.7174 724.318 34.1954 724.318 33.6614C724.317 32.9457 724.034 32.2595 723.532 31.7534C723.029 31.2473 722.347 30.9625 721.636 30.9614ZM721.636 35.1152C721.351 35.1152 721.072 35.03 720.834 34.8702C720.597 34.7105 720.411 34.4834 720.302 34.2178C720.193 33.9521 720.164 33.6598 720.22 33.3778C720.276 33.0957 720.413 32.8367 720.615 32.6334C720.817 32.4301 721.075 32.2916 721.355 32.2355C721.635 32.1794 721.925 32.2082 722.189 32.3182C722.453 32.4283 722.679 32.6146 722.837 32.8537C722.996 33.0928 723.081 33.3739 723.081 33.6614C723.081 34.047 722.928 34.4168 722.658 34.6894C722.387 34.9621 722.019 35.1152 721.636 35.1152Z" fill="black"/>
<path d="M686.564 36.7766C686.115 36.7766 685.676 36.9106 685.303 37.1616C684.93 37.4127 684.639 37.7695 684.467 38.1869C684.296 38.6044 684.251 39.0637 684.338 39.5069C684.426 39.9501 684.642 40.3572 684.959 40.6767C685.277 40.9962 685.681 41.2138 686.121 41.3019C686.561 41.3901 687.018 41.3448 687.432 41.1719C687.847 40.999 688.202 40.7062 688.451 40.3305C688.7 39.9548 688.833 39.5131 688.833 39.0612C688.832 38.4556 688.593 37.8752 688.168 37.447C687.742 37.0188 687.166 36.7777 686.564 36.7766ZM686.564 40.0997C686.36 40.0997 686.161 40.0388 685.991 39.9247C685.821 39.8106 685.689 39.6484 685.611 39.4586C685.533 39.2689 685.513 39.0601 685.552 38.8586C685.592 38.6572 685.69 38.4721 685.835 38.3269C685.979 38.1817 686.163 38.0828 686.363 38.0427C686.563 38.0026 686.77 38.0232 686.959 38.1018C687.147 38.1804 687.308 38.3135 687.422 38.4843C687.535 38.655 687.596 38.8558 687.596 39.0612C687.596 39.3366 687.487 39.6008 687.293 39.7955C687.1 39.9903 686.838 40.0997 686.564 40.0997Z" fill="black"/>
<path d="M718.748 76.238C717.973 76.238 717.215 76.4694 716.57 76.903C715.926 77.3366 715.423 77.9529 715.127 78.674C714.83 79.3951 714.752 80.1885 714.904 80.954C715.055 81.7194 715.428 82.4226 715.976 82.9745C716.525 83.5263 717.223 83.9022 717.983 84.0544C718.744 84.2067 719.532 84.1285 720.248 83.8299C720.964 83.5312 721.577 83.0254 722.007 82.3765C722.438 81.7275 722.668 80.9646 722.668 80.1841C722.667 79.1379 722.253 78.1348 721.519 77.395C720.784 76.6552 719.787 76.2391 718.748 76.238ZM718.748 82.8841C718.218 82.8841 717.699 82.7258 717.258 82.4291C716.817 82.1324 716.473 81.7107 716.27 81.2174C716.067 80.724 716.014 80.1811 716.118 79.6574C716.221 79.1336 716.477 78.6525 716.852 78.2749C717.227 77.8973 717.705 77.6402 718.225 77.536C718.745 77.4318 719.284 77.4853 719.774 77.6897C720.265 77.894 720.683 78.2401 720.978 78.6841C721.273 79.1281 721.43 79.6501 721.43 80.1841C721.429 80.8999 721.146 81.586 720.643 82.0921C720.141 82.5982 719.459 82.883 718.748 82.8841Z" fill="black"/>
<path d="M687.802 93.6839C687.027 93.6839 686.269 93.9154 685.624 94.349C684.979 94.7826 684.477 95.3989 684.18 96.12C683.884 96.841 683.806 97.6345 683.957 98.3999C684.109 99.1654 684.482 99.8685 685.03 100.42C685.578 100.972 686.277 101.348 687.037 101.5C687.797 101.653 688.586 101.575 689.302 101.276C690.018 100.977 690.63 100.471 691.061 99.8224C691.492 99.1735 691.722 98.4106 691.722 97.6301C691.721 96.5838 691.307 95.5808 690.572 94.841C689.838 94.1012 688.841 93.685 687.802 93.6839ZM687.802 100.33C687.271 100.33 686.753 100.172 686.312 99.875C685.871 99.5784 685.527 99.1567 685.324 98.6633C685.121 98.17 685.068 97.6271 685.171 97.1033C685.275 96.5796 685.53 96.0985 685.905 95.7209C686.28 95.3433 686.758 95.0862 687.279 94.982C687.799 94.8778 688.338 94.9313 688.828 95.1356C689.318 95.34 689.737 95.686 690.032 96.13C690.327 96.5741 690.484 97.0961 690.484 97.6301C690.483 98.3458 690.2 99.0319 689.697 99.538C689.194 100.044 688.513 100.329 687.802 100.33Z" fill="black"/>
<path d="M737.935 18.4999H706.799V4.99997H705.561V18.4999H677.28V106.146H702.722L688.549 196.284L688.454 196.899L689.692 197.094L703.985 106.146H708.292L708.226 196.699H709.464L709.518 106.146H714.651L729.274 197.422L730.512 197.223L730.363 196.284L715.922 106.146H737.935V18.4999ZM736.697 104.9H678.518V19.7461H736.697V104.9Z" fill="black"/>
<path d="M689.956 86.7598C690.306 86.9509 690.674 87.1461 691.057 87.3413C693.746 88.6675 696.501 89.8542 699.31 90.897L700.733 91.437C702.043 91.9272 703.402 92.427 704.81 92.9365L705.994 93.3519L707.925 94.0498L708.301 94.1869L709.539 94.6355C710.694 95.0508 711.856 95.4662 713.025 95.8816L714.362 96.3759C716.982 97.3438 719.623 98.3531 722.243 99.4165C725.276 100.663 727.31 101.244 728.597 101.244C729.394 101.244 729.905 101.016 730.186 100.567C731.506 98.4362 725.647 92.571 711.948 80.0804L711.717 79.8686L710.244 78.5269L709.547 77.8955L708.722 77.1437L708.561 76.9983L708.309 76.7698L707.484 76.0055C705.615 74.3108 703.741 72.6077 701.926 70.9379C704.269 69.9202 706.518 68.969 708.639 68.0717L708.738 68.0302C709.085 67.8806 709.427 67.7394 709.765 67.5899C712.187 66.568 714.395 65.6251 716.367 64.7445C717.072 64.4288 717.744 64.1201 718.385 63.8182C724.058 61.1431 727.087 59.0247 726.398 56.7068L725.21 57.0641C725.659 58.5761 722.557 60.4951 717.634 62.7964C717.054 63.0733 716.448 63.3502 715.818 63.6271C713.916 64.4787 711.808 65.38 709.576 66.3271L708.977 66.5846L708.152 66.9253C706.295 67.7145 704.349 68.5453 702.314 69.4176L700.919 70.0199L700.506 69.6543C697.131 66.5348 694.016 63.569 691.553 61.0227C688.73 58.115 687.587 54.8792 688.161 51.4315C689.102 45.7366 694.474 40.1912 699.97 35.8754C700.296 35.6179 700.626 35.3645 700.952 35.1152C704.715 32.2818 708.693 29.7486 712.848 27.5387L712.286 26.4254C708.047 28.6577 703.992 31.2274 700.16 34.11L699.178 34.8702C693.517 39.3189 687.95 45.1177 686.94 51.2238C686.3 55.0869 687.554 58.6758 690.653 61.895C693.129 64.4537 696.261 67.432 699.644 70.564C697.082 71.6856 694.412 72.8902 691.656 74.1862C686.704 76.5123 684.472 78.6848 684.583 81.0192C684.707 83.0878 686.675 84.9363 689.956 86.7598ZM692.192 75.3492C694.277 74.3634 696.311 73.4315 698.295 72.5537L700.634 71.5277C702.776 73.4966 705 75.5154 707.207 77.5175L707.863 78.1157L708.301 78.5311L710.273 80.3214L710.533 80.5581L712.002 81.8915C716.153 85.6756 720.151 89.3684 723.196 92.4339C729.319 98.5899 729.191 99.7904 729.105 99.9648C729.08 99.9939 728.403 100.65 722.676 98.3241C719.825 97.1651 716.953 96.0768 714.106 95.0259L712.79 94.515L709.526 93.3312L708.33 92.9158H708.288L706.163 92.1182L704.979 91.7029C703.943 91.329 702.916 90.951 701.926 90.5772C701.459 90.4069 700.997 90.2324 700.539 90.0579C697.465 88.931 694.452 87.6429 691.511 86.199C691.132 86.008 690.765 85.8127 690.418 85.6175C687.62 84.064 685.879 82.5312 685.809 81.0109C685.747 79.2746 687.889 77.3763 692.192 75.3492Z" fill="black"/>
<path d="M735.665 195.453C735.665 195.453 738.554 185.068 748.044 182.576C757.534 180.084 767.849 189.222 771.15 182.576C774.451 175.93 767.849 159.73 777.339 163.053C786.83 166.376 780.228 184.238 788.48 186.73C796.732 189.222 796.32 197.53 796.32 197.53H735.74L735.665 195.453Z" fill="black"/>
<path d="M581.553 197.53C582.791 197.945 608.497 197.53 608.497 197.53C608.497 197.53 609.611 190.053 602.184 187.976C594.757 185.899 595.995 186.314 595.582 175.93C595.17 165.545 593.106 149.345 586.917 157.653C580.728 165.961 584.029 175.93 578.252 180.914C572.476 185.899 570 188.391 570 197.53H581.553Z" fill="black"/>
<path d="M801.387 91.304L776.849 108.966L759.3 84.2591L783.842 66.597L801.387 91.304Z" fill="#F4A019"/>
<path d="M718.344 63.8556L717.605 63.3571V62.8337C717.498 60.2255 716.892 57.6627 715.819 55.2862C717.164 54.0401 718.459 52.8355 719.689 51.7056C726.027 45.8903 729.852 42.3637 728.969 39.9212C728.445 38.4881 726.443 37.7737 722.486 37.6075C716.239 37.3464 709.982 37.7544 703.82 38.8246L700.931 35.1485L700.688 34.8411C700.494 34.596 700.308 34.3634 700.139 34.1432C699.392 33.2045 698.823 32.4817 698.435 32.0165C697.75 31.1857 697.465 30.8368 696.97 31.2189C696.475 31.6011 696.669 31.9209 697.606 33.2003L697.725 33.1089C698.06 33.5243 698.522 34.0975 699.157 34.9034L699.974 35.9086C700.651 36.7685 701.476 37.8194 702.45 39.0988C696.673 40.3449 692.167 42.3554 691.392 45.3295C690.616 48.3036 693.616 51.5602 700.304 54.9872C703.551 56.6487 706.576 58.2562 709.345 59.8139C706.22 62.9439 703.265 66.2398 700.49 69.6876C699.747 70.6222 699.009 71.5776 698.286 72.5537C695.871 75.8012 693.699 79.2251 691.788 82.797C691.247 83.8147 690.798 84.7452 690.426 85.6009C690.249 86.0163 690.092 86.3901 689.948 86.7598C688.177 91.383 688.994 93.4059 690.17 94.2367C690.823 94.6853 691.601 94.911 692.39 94.8805C694.639 94.8805 697.655 93.5181 700.713 91.4204C701.125 91.1421 701.538 90.8472 701.951 90.5439C703.246 89.5732 704.486 88.5289 705.664 87.4161C706.17 86.9398 706.664 86.4524 707.145 85.954C707.174 85.9249 707.203 85.9 707.228 85.8709C707.587 85.497 707.942 85.119 708.292 84.7286C708.713 84.2606 709.126 83.7815 709.53 83.2914C709.943 82.7887 710.356 82.2737 710.747 81.7503C710.908 81.5426 711.065 81.3349 711.214 81.1189C711.362 80.9029 711.593 80.5955 711.775 80.3297L711.936 80.1012C715.084 75.478 717.3 70.2109 717.576 64.84C723.072 68.6034 726.551 72.1383 727.322 75.64C727.83 77.9578 727.161 80.2632 725.259 82.7015L726.233 83.4658C728.362 80.7284 729.121 78.0658 728.515 75.3783C727.685 71.536 724.12 67.8183 718.344 63.8556ZM716.318 62.5305C714.799 61.5585 713.156 60.5658 711.387 59.5522C712.559 58.3947 713.711 57.287 714.845 56.2292C715.688 58.23 716.186 60.361 716.318 62.5305ZM722.437 38.8537C726.476 39.024 727.578 39.7592 727.801 40.3491C728.399 42.0106 723.976 46.0772 718.851 50.7876C717.699 51.8427 716.497 52.9504 715.245 54.1107C714.615 52.9169 713.882 51.7813 713.054 50.717C709.753 46.4275 706.964 42.8275 704.686 39.9171C710.551 38.9483 716.499 38.5919 722.437 38.8537ZM700.874 53.8739C694.862 50.7918 691.998 47.9464 692.596 45.6452C693.228 43.2152 697.498 41.346 703.304 40.1829C705.449 42.9327 708.297 46.6047 712.072 51.4896C712.923 52.587 713.668 53.7638 714.296 55.0038C712.984 56.2499 711.635 57.5376 710.269 58.8959C707.401 57.2884 704.278 55.6185 700.874 53.8739ZM711.486 78.5435C711.329 78.7886 711.172 79.0295 711.007 79.2663C710.842 79.5031 710.653 79.7897 710.471 80.0472L710.289 80.2964C710.042 80.6412 709.79 80.9818 709.534 81.3141C709.122 81.8375 708.709 82.336 708.297 82.8344C708.037 83.1501 707.768 83.4575 707.496 83.7607C707.116 84.1761 706.733 84.5915 706.341 85.0069L705.994 85.36C704.323 87.074 702.504 88.6363 700.56 90.0289C700.147 90.3362 699.714 90.6187 699.302 90.8846C695.456 93.3519 692.229 94.2076 690.913 93.2356C689.836 92.4464 689.91 90.3612 691.062 87.3289C691.202 86.955 691.359 86.5687 691.532 86.17C691.912 85.3018 692.357 84.3672 692.889 83.3744C695.129 79.2046 697.722 75.2369 700.638 71.5153C701.189 70.8146 701.739 70.1223 702.289 69.4383C704.963 66.1776 707.739 63.1827 710.471 60.437C712.377 61.5294 714.152 62.597 715.777 63.6479L716.351 64.0217C716.351 64.271 716.343 64.5202 716.326 64.7694C716.066 69.592 714.205 74.3149 711.486 78.5435Z" fill="#F4A019"/>
<path d="M788.006 106.038L779.155 92.4713L759.416 105.523L772.285 125.253L792.02 112.206L788.006 106.038ZM761.128 105.88L778.784 94.1993L786.982 106.765L790.283 111.841L772.615 123.521L761.128 105.88Z" fill="black"/>
<path d="M482.079 86.9268L470.346 80.433L473.992 86.5227L463.3 80.7959L463.883 79.7074L470.631 83.315L466.914 77.1223L481.368 85.125L483.78 77.7407L467.946 72.5952L468.322 71.416L485.345 76.9491L482.079 86.9268Z" fill="black"/>
<path d="M361.623 197.798C289.103 197.798 288.368 197.423 288 197.242L288.553 196.133C288.524 196.119 288.494 196.108 288.463 196.1C292.279 196.924 474.244 196.45 569.929 196.071V197.308C569.227 197.308 499.271 197.584 429.927 197.72C402.034 197.774 379.613 197.798 361.623 197.798Z" fill="black"/>
<path d="M494.741 161.681L469.751 161.52L464.044 166.278L470.928 176.969L476.772 173.217L475.607 170.784L479.588 171.407L494.741 161.681ZM473.472 169.201L475.182 172.768L471.3 175.241L465.679 166.509L470.197 162.745H471.927L490.566 162.864L479.316 170.084L473.472 169.201Z" fill="black"/>
<path d="M417.335 107.463L411.966 146.632L404.532 183.739L376.862 181.265L392.762 137.767L396.686 90.5591L429.724 88.9099L455.743 119.832L480.522 153.229L458.633 177.554L442.114 130.552L417.335 107.463Z" fill="black"/>
<path d="M393.906 182.791L393.175 182.296L385.097 181.71V181.987L384.684 194.508L391.626 194.743L392.039 192.084L394.959 194.859L413.056 195.489L393.906 182.791ZM391.18 189.581L390.557 193.486L385.944 193.329L386.291 183.05L392.762 183.533L408.728 194.112L395.463 193.663L391.18 189.581Z" fill="black"/>
<path d="M428.692 19.8497C428.689 17.7364 427.342 15.8583 425.339 15.175C423.336 14.4916 421.119 15.1539 419.821 16.8234C418.676 16.0663 417.228 15.9273 415.96 16.4523C415.064 15.9979 413.995 16.0408 413.139 16.5656C412.282 17.0903 411.76 18.0217 411.76 19.0251C411.76 19.2673 411.791 19.5085 411.855 19.7425C410.447 20.3148 409.469 21.6123 409.306 23.1206C409.144 24.6289 409.825 26.1043 411.078 26.9619C410.24 27.6078 409.905 28.7144 410.246 29.7156C410.586 30.7168 411.526 31.3913 412.586 31.3941C412.833 31.3953 413.08 31.3577 413.316 31.2828L412.73 39.7143C412.603 40.437 412.779 41.18 413.216 41.7698C413.653 42.3596 414.314 42.7448 415.043 42.8354L421.196 43.6064C421.31 43.6124 421.425 43.6124 421.539 43.6064C422.409 43.6055 423.225 43.183 423.726 42.4732C424.228 41.7634 424.353 40.8546 424.062 40.0359L423.373 38.0733L422.91 36.7787L422.328 35.1295C422.937 34.9903 423.498 34.6931 423.955 34.2678C426.627 31.8064 426.049 26.9289 425.541 24.4592C427.442 23.7171 428.693 21.8874 428.692 19.8497ZM422.91 40.4647C423.08 40.9362 422.991 41.4617 422.677 41.8521C422.362 42.2425 421.867 42.4416 421.37 42.3778L415.212 41.6068C414.817 41.5568 414.46 41.3461 414.225 41.0246C413.991 40.703 413.899 40.299 413.973 39.9081L414.572 31.3528C415.646 32.429 418.421 34.9481 421.052 35.1914L422.91 40.4647ZM424.347 24.7437C424.81 27.0031 425.322 31.3405 423.108 33.336C422.777 33.6506 422.358 33.8588 421.907 33.9338C421.718 33.9644 421.527 33.9741 421.337 33.9627C418.884 33.8473 415.968 30.9859 415.233 30.2231L415.423 27.1598C416.492 26.5752 417.247 25.5491 417.488 24.3561H417.57C418.549 24.3556 419.496 24.0078 420.242 23.3748H420.329C421.237 24.2721 422.459 24.7821 423.736 24.7973C423.935 24.7954 424.133 24.7831 424.331 24.7602L424.347 24.7437Z" fill="black"/>
<path d="M374.938 97.259L374.756 98.5454L373.868 104.713L373.814 105.089L373.608 104.635L370.882 98.6691L369.54 109.95L358.695 106.185L360.487 101.848L360.958 100.698H360.962L363.952 93.4535L364.427 92.3073L364.481 92.1712L365.625 92.6454L365.071 93.9812L360.339 105.443L368.491 108.276L368.949 104.478L369.094 103.229L369.92 96.2654L370.077 94.9666L370.176 94.1338L370.692 95.2552L371.485 97.0034L373.187 100.735L373.583 97.9929L373.765 96.7065L374.938 97.259Z" fill="black"/>
<path d="M448.358 60.1726L430.621 38.2218L430.472 38.0362L422.902 36.7993H422.807L422.6 38.0362L423.373 38.164L429.803 39.236L447.64 61.3064L470.486 67.9032L459.666 85.6321L440.446 74.0424L431.083 63.8833C431.063 60.152 431.149 56.5279 431.414 53.2171L430.175 53.1182C429.497 61.6239 429.985 72.084 430.418 81.3318C430.534 83.7603 430.641 86.0692 430.728 88.2956C428.473 88.2667 421.911 88.6172 411.165 89.3676C406.903 89.6644 402.199 90.0108 398.255 90.3159C395.752 90.5096 394.278 90.6251 393.398 90.7282C394.79 85.83 401.559 62.0238 404.731 51.6091L408.369 45.169L407.287 44.5588L394.48 67.2559L378.233 98.8793L374.929 97.325L373.765 96.7065L370.077 94.9666L365.534 92.835L364.415 92.3073L363.589 91.9238L381.347 65.3346L401.129 38.7866L412.858 37.6116L413.246 37.5744L413.122 36.3375H412.945L400.46 37.5744L380.373 64.6213L361.788 92.4145L363.956 93.437L365.092 93.9812L378.812 100.446L395.595 67.7754L402.005 56.4289C398.35 68.7649 392.845 88.176 392.06 90.9384C392.039 90.9561 392.021 90.977 392.006 91.0003L391.763 91.3095L391.94 91.66C392.055 91.886 392.294 92.0211 392.547 92.0022H393.047V91.9403C393.716 91.8661 394.959 91.7548 396.603 91.6228C405.338 90.9178 425.33 89.5613 430.212 89.4954C430.556 89.4783 430.901 89.4879 431.244 89.5242L432.029 89.7057L432 88.8811C431.909 86.4361 431.789 83.9046 431.665 81.2246C431.43 76.2317 431.178 70.8759 431.104 65.6768L439.657 74.9577L460.079 87.2855L468.855 72.9003L469.516 71.8118L472.386 67.1075L448.358 60.1726Z" fill="black"/>
<path d="M378.803 113.339L380.819 106.878L373.868 104.713L373.608 104.635L369.102 103.229L368.954 104.466L370.155 104.841L379.274 107.678L377.622 112.959L352.876 105.212L354.528 99.976L360.508 101.836L361.693 102.207L362.168 101.056L360.983 100.685L353.718 98.4258L351.715 104.845L344.079 102.454L334.494 132.964L378.378 146.702L387.963 116.171L378.803 113.339ZM377.54 145.189L336.022 132.185L344.856 104.017L351.311 106.037L352.492 106.408L378.419 114.522L386.373 116.996L377.54 145.189Z" fill="black"/>
<path d="M487.542 196.726H524.711C524.711 196.726 533.797 186.007 525.537 186.831C517.278 187.656 507.779 190.13 511.083 184.357C514.387 178.585 530.906 166.216 520.168 167.041C509.431 167.865 501.997 175.287 501.171 179.41C500.345 183.533 495.389 177.348 490.433 178.173C485.478 178.997 486.717 183.12 490.433 186.831C494.15 190.542 478.457 189.305 487.542 196.726Z" fill="black"/>
<path d="M383.372 0.00732422L353.79 6.6307L360.441 36.1792L390.022 29.5559L383.372 0.00732422Z" fill="#F4A019"/>
<path d="M374.347 32.9938L371.456 17.145L348.226 21.3587L352.418 44.4063L375.673 40.1926L374.347 32.9938ZM353.396 42.9673L349.651 22.3523L370.461 18.5839L374.211 39.1948L353.396 42.9673Z" fill="black"/>
</svg>
